<svg xmlns="http://www.w3.org/2000/svg" viewBox="0 0 128 128">
  <path fill="#092E20" d="M68.7 13.2h15.9v70.2c0 12.2-2.9 21.6-8.7 28.1-5.8 6.5-14.3 9.8-25.5 9.8-10.1 0-18.3-2.6-24.5-7.7L31 100.8c5 3.9 11.3 5.9 18.9 5.9 6.7 0 11.8-1.9 15.2-5.7 3.4-3.8 5.1-9.6 5.1-17.4V70c-4 5.9-9.5 8.9-16.4 8.9-6.6 0-12.2-2.7-16.7-8.1-4.5-5.4-6.8-12.6-6.8-21.6 0-9.2 2.3-16.5 6.9-21.8C41.8 22 47.5 19.3 54 19.3c7.2 0 12.7 3.2 16.5 9.5V13.2zm-1.8 38.3c0-5.4-1.2-9.6-3.7-12.7-2.5-3.1-5.7-4.6-9.8-4.6-4 0-7.3 1.5-9.8 4.6-2.5 3.1-3.7 7.3-3.7 12.6 0 5.4 1.2 9.6 3.7 12.6 2.5 3 5.7 4.5 9.8 4.5 4.1 0 7.3-1.5 9.8-4.5 2.5-3.1 3.7-7.3 3.7-12.5z"/>
</svg>
